<svg width="46" height="60" viewBox="0 0 46 60" fill="none" xmlns="http://www.w3.org/2000/svg">
<path d="M2.19818 40.6908H43.8023C44.6381 40.6908 45.4048 40.9917 46 41.4902V2.37091C46 1.06133 44.9439 0 43.641 0H2.35906C1.05658 0 0 1.06133 0 2.37091V41.4902C0.595201 40.9917 1.36191 40.6908 2.19818 40.6908Z" fill="#005D4A"/>
<path d="M6.91835 12.1557C4.47501 12.1557 3.60742 10.5697 3.60742 9.21082C3.60742 7.47147 5.04696 6.25604 7.10723 6.25604H7.43668V5.7395H8.52986V11.0453H15.9304V6.25604H17.0231V11.0453H23.9218V6.25604H24.9927V12.1557H6.91835ZM6.7715 7.36648C5.77542 7.36648 4.7006 8.07129 4.7006 9.21082C4.7006 10.4785 5.74064 11.0453 6.7715 11.0453H7.43668V7.36648H6.7715ZM8.67236 4.28749C8.67236 3.90601 8.36078 3.60782 7.96274 3.60782C7.57097 3.60782 7.26374 3.90601 7.26374 4.28749C7.26374 4.68031 7.56469 4.97703 7.96274 4.97703C8.36755 4.97703 8.67236 4.68031 8.67236 4.28749ZM6.69662 4.28749C6.69662 3.90601 6.38939 3.60782 5.99763 3.60782C5.60538 3.60782 5.29815 3.90601 5.29815 4.28749C5.29815 4.68031 5.59862 4.97703 5.99763 4.97703C6.39616 4.97703 6.69662 4.68031 6.69662 4.28749ZM17.1965 13.6176C17.1965 13.2312 16.8806 12.9276 16.4768 12.9276C16.0729 12.9276 15.7565 13.2312 15.7565 13.6176C15.7565 14.0168 16.0662 14.318 16.4768 14.318C16.8869 14.318 17.1965 14.0168 17.1965 13.6176ZM23.345 13.6383C23.345 13.2514 23.0378 12.9488 22.646 12.9488C22.2533 12.9488 21.946 13.2514 21.946 13.6383C21.946 14.0257 22.247 14.318 22.646 14.318C23.0445 14.318 23.345 14.0257 23.345 13.6383ZM25.3207 13.6383C25.3207 13.2514 25.0087 12.9488 24.6111 12.9488C24.2193 12.9488 23.9121 13.2514 23.9121 13.6383C23.9121 14.0257 24.2126 14.318 24.6111 14.318C25.0222 14.318 25.3207 14.0321 25.3207 13.6383ZM27.11 14.4314C26.8781 14.4314 26.6496 14.3993 26.4115 14.3333L26.2772 14.2963L26.5636 13.2282L26.697 13.2637C26.8834 13.313 26.9525 13.3209 27.0796 13.3209C27.5554 13.3209 27.7143 13.1578 27.7143 12.1907V6.25604H28.8075V11.0453H35.3559V6.25604H36.4496V6.90762H40.0218C40.8571 6.90762 41.4058 7.13237 41.858 7.65925C42.2024 8.05404 42.3918 8.67112 42.3918 9.39713V12.1557H28.6877L28.6911 12.2149C28.7312 13.0567 28.578 13.6679 28.2375 14.0311C27.8621 14.4314 27.3544 14.4314 27.111 14.4314H27.11ZM36.4496 11.0453H41.2986V9.39713C41.2986 8.95157 41.214 8.64746 41.0242 8.41088C40.815 8.15015 40.4778 8.01806 40.0218 8.01806H36.4496V11.0453ZM39.5301 5.22888C39.5301 4.83656 39.2142 4.52851 38.8103 4.52851C38.4065 4.52851 38.0905 4.83656 38.0905 5.22888C38.0905 5.62811 38.3997 5.92877 38.8103 5.92877C39.2209 5.92877 39.5301 5.62811 39.5301 5.22888Z" fill="white"/>
<path d="M7.96024 16.8248C7.56146 16.8248 7.26117 16.5289 7.26117 16.1364C7.26117 15.7558 7.56822 15.4574 7.96024 15.4574C8.35806 15.4574 8.66946 15.7558 8.66946 16.1364C8.66946 16.5289 8.36482 16.8248 7.96024 16.8248ZM6.69485 16.1364C6.69485 15.7558 6.3878 15.4574 5.99578 15.4574C5.60375 15.4574 5.29718 15.7558 5.29718 16.1364C5.29718 16.5289 5.59699 16.8248 5.99578 16.8248C6.39456 16.8248 6.69485 16.5289 6.69485 16.1364ZM23.6953 25.4783C23.6953 25.0918 23.3887 24.7894 22.9972 24.7894C22.6052 24.7894 22.2981 25.0918 22.2981 25.4783C22.2981 25.8653 22.5984 26.1568 22.9972 26.1568C23.3955 26.1568 23.6953 25.8653 23.6953 25.4783ZM25.6704 25.4783C25.6704 25.0918 25.3585 24.7894 24.9612 24.7894C24.5691 24.7894 24.2621 25.0918 24.2621 25.4783C24.2621 25.8653 24.5629 26.1568 24.9612 26.1568C25.372 26.1568 25.6704 25.8717 25.6704 25.4783ZM31.767 16.5392C31.767 16.1586 31.4595 15.8607 31.0675 15.8607C30.6759 15.8607 30.3689 16.1586 30.3689 16.5392C30.3689 16.9317 30.6687 17.2281 31.0675 17.2281C31.4662 17.2281 31.767 16.9317 31.767 16.5392ZM33.7411 16.5392C33.7411 16.1586 33.4293 15.8607 33.0319 15.8607C32.6404 15.8607 32.3333 16.1586 32.3333 16.5392C32.3333 16.9317 32.6336 17.2281 33.0319 17.2281C33.436 17.2281 33.7411 16.9317 33.7411 16.5392ZM18.0496 24.0139L18.0665 23.9972H39.2474V15.3333H38.1543V22.8878H34.026V18.1031H32.5129C30.4374 18.1031 29.0962 19.2578 29.0962 21.0447C29.0962 21.7178 29.3063 22.3067 29.7195 22.7947L29.7982 22.8878H24.6015V18.1031H23.5094V22.8878H18.7453L18.7699 22.8129C18.8756 22.4973 18.9292 22.16 18.9292 21.8099C18.9292 20.0092 17.5919 18.6506 15.8181 18.6506C14.1139 18.6506 12.778 20.0382 12.778 21.8099C12.778 22.1482 12.8311 22.486 12.9354 22.8139L12.959 22.8878H8.52704V17.5861H7.43449V18.1031H7.10522C5.04565 18.1031 3.60742 19.3174 3.60742 21.055C3.60742 22.4776 4.52665 23.9972 7.10522 23.9972H13.6311L13.647 24.0139C14.222 24.6097 14.9925 24.9372 15.8181 24.9372C16.6669 24.9372 17.4799 24.6009 18.0496 24.0139ZM17.8371 21.7991C17.8371 22.9503 16.9691 23.8179 15.8181 23.8179C14.7265 23.8179 13.871 22.9311 13.871 21.7991C13.871 20.6557 14.7265 19.7595 15.8181 19.7595C16.9879 19.7595 17.8371 20.6173 17.8371 21.7991ZM32.9334 19.2125V22.8878H31.3282L31.3151 22.8799C30.5996 22.4535 30.1893 21.7848 30.1893 21.0447C30.1893 19.8546 31.2133 19.2125 32.1769 19.2125H32.9334ZM7.43449 19.2125V22.8878H6.7692C5.73942 22.8878 4.69997 22.3205 4.69997 21.055C4.69997 19.9171 5.77418 19.2125 6.7692 19.2125H7.43449ZM42.3918 15.3333H41.2992V23.9972H42.3918V15.3333Z" fill="white"/>
<path d="M7.96327 29.362C7.56426 29.362 7.2633 29.0836 7.2633 28.7146C7.2633 28.3576 7.57102 28.0773 7.96327 28.0773C8.36132 28.0773 8.67291 28.3576 8.67291 28.7146C8.67291 29.0836 8.3676 29.362 7.96327 29.362ZM6.69666 28.7146C6.69666 28.3576 6.38943 28.0773 5.99766 28.0773C5.6054 28.0773 5.29817 28.3576 5.29817 28.7146C5.29817 29.0836 5.59864 29.362 5.99766 29.362C6.39619 29.362 6.69666 29.0836 6.69666 28.7146ZM15.2171 36.0972V30.562H13.7031C11.6264 30.562 10.2844 31.6463 10.2844 33.3245C10.2844 33.9562 10.4936 34.5092 10.9076 34.968L10.9868 35.0553H8.52992V30.0769H7.43673V30.562H7.10776C5.04697 30.562 3.60742 31.7018 3.60742 33.3347C3.60742 34.6701 4.52671 36.0972 7.10776 36.0972H15.2171ZM14.1239 31.6038V35.0553H12.5177L12.5046 35.048C11.7882 34.647 11.3776 34.0195 11.3776 33.3245C11.3776 32.4907 12.0747 31.6038 13.3669 31.6038H14.1239ZM7.43673 31.6038V35.0553H6.77154C5.74066 35.0553 4.70109 34.5236 4.70109 33.3347C4.70109 32.266 5.77593 31.6038 6.77154 31.6038H7.43673ZM13.9437 29.0831C13.9437 28.715 13.6273 28.4269 13.2239 28.4269C12.8206 28.4269 12.5041 28.715 12.5041 29.0831C12.5041 29.4577 12.8138 29.7402 13.2239 29.7402C13.634 29.7402 13.9437 29.4577 13.9437 29.0831ZM24.6543 29.5978C24.6543 29.2297 24.3379 28.9412 23.9341 28.9412C23.5312 28.9412 23.2148 29.2297 23.2148 29.5978C23.2148 29.9724 23.5244 30.2549 23.9341 30.2549C24.3447 30.2549 24.6543 29.9724 24.6543 29.5978ZM34.7921 36.1134L34.8085 36.0972H39.2455V27.9608H38.1523V35.0553H35.4872L35.5123 34.9855C35.6181 34.6891 35.6722 34.3723 35.6722 34.0426C35.6722 32.3515 34.3336 31.0762 32.5588 31.0762C30.8541 31.0762 29.5174 32.3798 29.5174 34.0426C29.5174 34.3612 29.5706 34.6789 29.6744 34.9864L29.6976 35.0553H27.5156V33.509C27.5156 32.8278 27.3267 32.2489 26.9823 31.8789C26.5301 31.3842 25.9804 31.1733 25.1466 31.1733H21.6907V30.562H20.5975V35.0553H17.9662V27.9608H16.8726V36.0972H30.371L30.387 36.1134C30.9628 36.6725 31.7338 36.9804 32.5588 36.9804C33.4081 36.9804 34.2221 36.6646 34.7921 36.1134ZM34.5786 34.0329C34.5786 35.1136 33.7105 35.9289 32.5588 35.9289C31.4666 35.9289 30.6111 35.096 30.6111 34.0329C30.6111 32.9592 31.4666 32.1185 32.5588 32.1185C33.7298 32.1185 34.5786 32.9236 34.5786 34.0329ZM21.6907 32.2151H25.1466C25.6021 32.2151 25.9393 32.3395 26.1485 32.5837C26.3379 32.8056 26.4229 33.091 26.4229 33.509V35.0553H21.6907V32.2151ZM42.3918 27.9608H41.2986V36.0977H42.3918V27.9608Z" fill="white"/>
<path d="M43.6467 59.5294H2.35329C1.05369 59.5294 0 58.4497 0 57.1187V43.9004C0 42.5694 1.05369 41.4902 2.35329 41.4902H43.6467C44.9463 41.4902 46 42.5694 46 43.9004V57.1187C46 58.4497 44.9463 59.5294 43.6467 59.5294Z" fill="#D09E2B"/>
<path d="M10.3719 53.8905L13.1885 44.1961H17.1368C15.8271 48.214 13.0164 56.8236 12.9846 56.8236H7.75968C7.7279 56.8236 4.91719 48.214 3.60742 44.1961H7.5558" fill="white"/>
<path d="M42.3859 44.1961H29.7646L30.7166 47.0925H34.7505V56.8236H38.3699V47.0925H42.392" fill="white"/>
<path d="M29.7651 48.7061L29.3391 47.804C27.1509 49.1962 23.5231 53.3926 23.5231 53.3926L22.1923 51.9336L21.7095 53.5166L21.6475 53.748C22.1543 54.4548 23.5434 56.8236 23.5434 56.8236C26.7452 51.1569 29.7651 48.7061 29.7651 48.7061Z" fill="#005D4A"/>
<path d="M22.9791 47.1292L24.261 51.5552C25.0413 50.6725 26.0721 49.5593 27.0591 48.6456C26.2452 46.1581 25.5989 44.1961 25.5838 44.1961H20.375C20.3433 44.1961 17.5408 52.8057 16.2356 56.8236H20.1718" fill="white"/>
<path d="M25.255 54.9988L25.8082 56.8235H29.7648C29.2823 55.4052 28.5968 53.3912 27.9212 51.4117C27.1731 52.2776 26.2462 53.466 25.255 54.9988Z" fill="white"/>
</svg>
